<svg version="1.1" viewBox="0.0 0.0 1000.0 500.0" fill="none" stroke="none" stroke-linecap="square" stroke-miterlimit="10" xmlns:xlink="http://www.w3.org/1999/xlink" xmlns="http://www.w3.org/2000/svg"><clipPath id="p.0"><path d="m0 0l1000.0 0l0 500.0l-1000.0 0l0 -500.0z" clip-rule="nonzero"/></clipPath><g clip-path="url(#p.0)"><path fill="#000000" fill-opacity="0.0" d="m0 0l1000.0 0l0 500.0l-1000.0 0z" fill-rule="evenodd"/><path fill="#000000" fill-opacity="0.0" d="m0 0l1000.0 0l0 500.0l-1000.0 0z" fill-rule="evenodd"/><path fill="#c5050c" d="m167.19675 202.00002l-76.796875 0q-7.203125 0 -7.203125 -7.203125l0 -129.59375q0 -7.203125 7.203125 -7.203125l63.796875 0q19.609375 0 29.0 7.40625q9.40625 7.390625 9.40625 23.1875l0 9.609375q0 16.59375 -11.796875 21.59375q13.0 1.203125 19.09375 8.703125q6.09375 7.5 6.09375 22.296875l0 18.40625q0 16.796875 -9.40625 24.796875q-9.390625 8.0 -29.390625 8.0zm-61.796875 -126.0l0 108.0l53.796875 0q11.203125 0 16.796875 -2.5q5.609375 -2.5 7.5 -7.09375q1.90625 -4.609375 1.90625 -10.40625l0 -12.796875q0 -6.609375 -1.90625 -11.796875q-1.890625 -5.203125 -7.390625 -8.203125q-5.5 -3.0 -16.703125 -3.0q8.59375 -2.203125 10.6875 -7.203125q2.109375 -5.0 2.109375 -11.0l0 -12.796875q0 -5.796875 -1.90625 -10.59375q-1.890625 -4.8125 -7.5 -7.703125q-5.59375 -2.90625 -16.796875 -2.90625l-40.59375 0zm2.0 54.203125l52.0 0q10.203125 0 15.296875 2.796875q5.109375 2.796875 6.90625 7.5q1.796875 4.703125 1.796875 10.703125l0 12.796875q0 5.40625 -1.90625 9.5q-1.890625 4.09375 -7.09375 6.296875q-5.203125 2.203125 -15.203125 2.203125l-51.796875 0l0 -51.796875zm38.59375 -2.0l-38.59375 0l0 -50.203125l38.59375 0q10.203125 0 15.40625 2.5q5.203125 2.5 7.0 6.90625q1.796875 4.390625 1.796875 9.796875l0 12.796875q0 4.796875 -1.5 8.90625q-1.5 4.09375 -6.609375 6.703125q-5.09375 2.59375 -16.09375 2.59375zm-17.796875 16.203125l0 23.59375l26.0 0q7.609375 0 7.609375 -8.0l0 -7.796875q0 -7.796875 -7.609375 -7.796875l-26.0 0zm0 -52.40625l0 21.59375l17.0 0q7.609375 0 7.609375 -8.0l0 -5.59375q0 -8.0 -7.609375 -8.0l-17.0 0zm140.7969 102.796875q0 7.203125 -7.1875 7.203125l-29.40625 0q-7.203125 0 -7.203125 -7.203125l0 -52.796875q0 -6.0 1.890625 -13.796875q1.90625 -7.796875 5.90625 -18.203125l17.40625 -45.40625q2.203125 -6.59375 10.203125 -6.59375l53.796875 0q7.796875 0 10.0 6.59375l17.40625 45.40625q4.0 10.40625 5.890625 18.203125q1.90625 7.796875 1.90625 13.796875l0 52.796875q0 7.203125 -7.203125 7.203125l-30.203125 0q-7.796875 0 -7.796875 -7.203125l0 -28.0l-35.40625 0l0 28.0zm59.40625 -10.796875l0 -42.59375q0 -5.609375 -0.90625 -10.296875q-0.890625 -4.703125 -2.5 -9.109375l-13.796875 -32.59375q-2.390625 -5.8125 -5.09375 -9.609375q-2.703125 -3.796875 -9.296875 -3.796875l-19.609375 0q-6.796875 0 -9.59375 3.796875q-2.796875 3.796875 -5.0 9.40625l-12.796875 32.796875q-1.609375 4.40625 -2.515625 9.109375q-0.890625 4.6875 -0.890625 10.296875l0 42.59375l2.0 0l0 -34.40625l78.0 0l0 34.40625l2.0 0zm-80.0 -36.40625l0 -6.1875q0 -5.40625 0.890625 -10.0q0.90625 -4.609375 2.3125 -8.609375l12.796875 -32.796875q2.0 -5.203125 4.390625 -8.59375q2.40625 -3.40625 8.40625 -3.40625l19.609375 0q5.59375 0 7.984375 3.5q2.40625 3.5 4.609375 8.703125l13.796875 32.59375q1.609375 4.0 2.40625 8.609375q0.796875 4.59375 0.796875 10.0l0 6.1875l-78.0 0zm32.0 -47.59375l-9.40625 30.40625l31.40625 0l-9.40625 -30.40625q-1.390625 -3.40625 -3.796875 -3.40625l-5.0 0q-2.390625 0 -3.796875 3.40625zm168.40628 102.0l-67.40625 0q-7.203125 0 -7.203125 -7.203125l0 -129.59375q0 -7.203125 7.203125 -7.203125l67.40625 0q25.1875 0 37.1875 10.0q12.0 10.0 12.0 30.796875l0 62.40625q0 20.796875 -12.0 30.796875q-12.0 10.0 -37.1875 10.0zm-52.8125 -18.0l48.40625 0q13.796875 0 20.6875 -3.59375q6.90625 -3.609375 9.109375 -9.796875q2.203125 -6.203125 2.203125 -13.8125l0 -53.0q0 -7.796875 -2.296875 -14.09375q-2.296875 -6.296875 -9.203125 -10.0q-6.90625 -3.703125 -20.5 -3.703125l-48.40625 0l0 108.0zm48.40625 -106.0q12.59375 0 19.09375 3.40625q6.5 3.390625 8.703125 9.203125q2.203125 5.796875 2.203125 13.1875l0 53.0q0 7.203125 -2.203125 12.90625q-2.203125 5.703125 -8.609375 9.0q-6.390625 3.296875 -19.1875 3.296875l-46.40625 0l0 -104.0l46.40625 0zm-24.796875 18.203125l0 68.0l23.796875 0q9.40625 0 9.40625 -9.796875l0 -48.609375q0 -9.59375 -9.40625 -9.59375l-23.796875 0zm213.7938 105.796875l-63.0 0q-25.203125 0 -37.203125 -10.0q-12.0 -10.0 -12.0 -30.796875l0 -62.40625q0 -20.796875 12.0 -30.796875q12.0 -10.0 37.203125 -10.0l50.0 0q7.203125 0 7.203125 7.203125l0 24.203125q0 7.1875 -7.203125 7.1875l-41.59375 0q-12.203125 0 -12.203125 10.0l0 47.8125q0 9.796875 9.203125 9.796875l19.390625 0l0 -31.203125q0 -7.203125 7.203125 -7.203125l31.0 0q7.203125 0 7.203125 7.203125l0 61.796875q0 7.203125 -7.203125 7.203125zm-14.59375 -58.203125l-2.0 0l0 38.203125l-37.796875 0q-13.40625 0 -20.8125 -2.296875q-7.390625 -2.296875 -10.296875 -7.59375q-2.890625 -5.3125 -2.890625 -13.90625l0 -56.0q0 -9.0 2.59375 -14.296875q2.59375 -5.3125 9.09375 -7.609375q6.5 -2.296875 18.3125 -2.296875l34.59375 0l0 -2.0l-34.59375 0q-12.8125 0 -19.71875 2.609375q-6.890625 2.59375 -9.59375 8.296875q-2.6875 5.6875 -2.6875 15.296875l0 56.0q0 9.203125 2.890625 14.90625q2.90625 5.6875 10.703125 8.296875q7.796875 2.59375 22.40625 2.59375l39.796875 0l0 -40.203125zm146.19385 58.203125l-92.796875 0q-7.203125 0 -7.203125 -7.203125l0 -129.59375q0 -7.203125 7.203125 -7.203125l92.796875 0q7.203125 0 7.203125 7.203125l0 23.390625q0 7.203125 -7.203125 7.203125l-55.203125 0l0 15.40625l39.0 0q7.203125 0 7.203125 7.203125l0 21.390625q0 7.203125 -7.203125 7.203125l-39.0 0l0 17.203125l55.203125 0q7.203125 0 7.203125 7.203125l0 23.390625q0 7.203125 -7.203125 7.203125zm-10.796875 -20.0l-65.40625 0l0 -51.796875l49.203125 0l0 -2.0l-49.203125 0l0 -50.203125l65.40625 0l0 -2.0l-67.40625 0l0 108.0l67.40625 0l0 -2.0zm79.596924 20.0l-30.796875 0q-7.203125 0 -7.203125 -7.203125l0 -129.59375q0 -7.203125 7.203125 -7.203125l66.59375 0q15.0 0 23.59375 4.203125q8.609375 4.203125 12.203125 11.703125q3.609375 7.5 3.609375 17.5l0 9.1875q0 8.40625 -2.40625 14.203125q-2.390625 5.796875 -8.796875 8.609375q11.0 1.1875 17.59375 8.796875q6.609375 7.59375 6.609375 20.203125l0 42.390625q0 7.203125 -7.203125 7.203125l-31.0 0q-7.203125 0 -7.203125 -7.203125l0 -30.59375q0 -4.609375 -1.703125 -6.609375q-1.6875 -2.0 -5.890625 -2.0l-28.0 0l0 39.203125q0 7.203125 -7.203125 7.203125zm64.40625 -18.0l2.0 0l0 -26.796875q0 -21.40625 -24.203125 -21.40625l-2.203125 0q7.203125 -2.203125 9.59375 -8.203125q2.40625 -6.0 2.40625 -15.0l0 -13.796875q0 -10.0 -5.5 -16.390625q-5.5 -6.40625 -17.296875 -6.40625l-45.59375 0l0 108.0l2.0 0l0 -46.40625l56.59375 0q22.203125 0 22.203125 19.609375l0 26.796875zm-78.796875 -48.203125l0 -57.796875l43.59375 0q10.59375 0 15.6875 5.703125q5.109375 5.703125 5.109375 15.09375l0 14.0q0 11.0 -4.203125 17.0q-4.1875 6.0 -16.59375 6.0l-43.59375 0zm21.59375 -41.796875l0 25.59375l15.0 0q5.203125 0 7.0 -2.6875q1.796875 -2.703125 1.796875 -6.703125l0 -6.796875q0 -4.0 -1.796875 -6.703125q-1.796875 -2.703125 -7.0 -2.703125l-15.0 0z" fill-rule="nonzero"/><path fill="#c5050c" d="m190.99991 442.0l-52.0 0q-3.796875 0 -6.203125 -1.390625q-2.390625 -1.40625 -4.0 -5.203125l-19.59375 -49.0q-2.40625 -6.0 -3.8125 -10.0q-1.390625 -4.0 -2.0 -8.09375q-0.59375 -4.109375 -0.59375 -10.3125l0 -52.796875q0 -7.203125 7.203125 -7.203125l31.796875 0q7.796875 0 7.796875 7.203125l0 55.203125q0 2.0 0.40625 4.0q0.40625 2.0 1.203125 4.1875l9.390625 28.0q1.0 3.40625 3.8125 3.40625l2.1875 0q2.8125 0 3.8125 -3.40625l9.390625 -28.1875q0.796875 -2.203125 1.203125 -4.203125q0.40625 -2.0 0.40625 -4.0l0 -55.0q0 -7.203125 7.1875 -7.203125l31.40625 0q7.203125 0 7.203125 7.203125l0 52.796875q0 6.203125 -0.609375 10.3125q-0.59375 4.09375 -2.0 8.09375q-1.390625 4.0 -3.796875 10.0l-19.59375 49.0q-1.40625 3.796875 -3.8125 5.203125q-2.390625 1.390625 -6.390625 1.390625zm-63.59375 -126.0l-2.0 0l0 43.203125q0 5.59375 0.6875 10.296875q0.703125 4.703125 2.5 9.09375l13.203125 32.0q2.40625 5.8125 5.40625 9.609375q3.0 3.796875 9.203125 3.796875l17.59375 0q6.40625 0 9.296875 -3.796875q2.90625 -3.796875 5.296875 -9.609375l13.203125 -32.0q1.796875 -4.390625 2.5 -9.09375q0.703125 -4.703125 0.703125 -10.296875l0 -43.203125l-2.0 0l0 43.203125q0 10.796875 -3.203125 18.59375l-13.203125 32.0q-2.0 5.203125 -4.40625 8.703125q-2.390625 3.5 -8.1875 3.5l-17.59375 0q-5.609375 0 -8.015625 -3.5q-2.390625 -3.5 -4.59375 -8.703125l-13.203125 -32.0q-3.1875 -7.796875 -3.1875 -18.59375l0 -43.203125zm128.39066 126.0q-7.203125 0 -7.203125 -7.203125l0 -23.796875q0 -7.203125 7.203125 -7.203125l19.796875 0l0 -67.203125l-19.796875 0q-7.203125 0 -7.203125 -7.1875l0 -24.203125q0 -7.203125 7.203125 -7.203125l85.203125 0q7.203125 0 7.203125 7.203125l0 24.203125q0 7.1875 -7.203125 7.1875l-19.40625 0l0 67.203125l19.40625 0q7.203125 0 7.203125 7.203125l0 23.796875q0 7.203125 -7.203125 7.203125l-85.203125 0zm10.796875 -126.0l0 2.0l31.0 0l0 104.0l-31.0 0l0 2.0l63.609375 0l0 -2.0l-30.609375 0l0 -104.0l30.609375 0l0 -2.0l-63.609375 0zm173.00003 126.0l-63.1875 0q-7.203125 0 -7.203125 -7.203125l0 -23.390625q0 -7.203125 7.203125 -7.203125l53.796875 0q2.59375 0 3.890625 -1.703125q1.3125 -1.703125 1.3125 -4.09375q0 -3.40625 -1.3125 -5.0q-1.296875 -1.609375 -3.890625 -1.8125l-30.0 -4.1875q-14.0 -2.203125 -22.5 -9.296875q-8.5 -7.109375 -8.5 -23.90625l0 -21.0q0 -17.203125 11.0 -26.203125q11.0 -9.0 30.390625 -9.0l56.0 0q7.203125 0 7.203125 7.203125l0 23.796875q0 7.203125 -7.203125 7.203125l-46.59375 0q-5.40625 0 -5.40625 6.0q0 5.796875 5.40625 6.390625l29.796875 4.0q9.40625 1.40625 16.40625 4.90625q7.0 3.5 10.890625 10.296875q3.90625 6.796875 3.90625 18.0l0 21.0q0 17.0 -11.0 26.109375q-11.0 9.09375 -30.40625 9.09375zm16.203125 -124.0l0 -2.0l-44.390625 0q-9.203125 0 -14.8125 5.109375q-5.59375 5.09375 -5.59375 13.09375l0 16.390625q0 8.203125 3.296875 11.3125q3.296875 3.09375 8.5 4.09375l42.203125 8.59375q5.59375 1.203125 8.890625 4.703125q3.3125 3.5 3.3125 12.90625l0 11.59375q0 8.0 -5.40625 13.109375q-5.390625 5.09375 -14.796875 5.09375l-49.796875 0l0 2.0l49.796875 0q10.203125 0 16.203125 -5.703125q6.0 -5.703125 6.0 -14.5l0 -11.59375q0 -10.609375 -3.90625 -14.5q-3.890625 -3.90625 -9.890625 -5.109375l-42.203125 -8.59375q-4.609375 -1.0 -7.40625 -3.703125q-2.796875 -2.703125 -2.796875 -9.703125l0 -16.390625q0 -7.0 5.0 -11.59375q5.0 -4.609375 13.40625 -4.609375l44.390625 0zm51.00003 124.0q-7.203125 0 -7.203125 -7.203125l0 -23.796875q0 -7.203125 7.203125 -7.203125l19.796875 0l0 -67.203125l-19.796875 0q-7.203125 0 -7.203125 -7.1875l0 -24.203125q0 -7.203125 7.203125 -7.203125l85.203125 0q7.203125 0 7.203125 7.203125l0 24.203125q0 7.1875 -7.203125 7.1875l-19.40625 0l0 67.203125l19.40625 0q7.203125 0 7.203125 7.203125l0 23.796875q0 7.203125 -7.203125 7.203125l-85.203125 0zm10.796875 -126.0l0 2.0l31.0 0l0 104.0l-31.0 0l0 2.0l63.609375 0l0 -2.0l-30.609375 0l0 -104.0l30.609375 0l0 -2.0l-63.609375 0zm228.20312 88.203125q0 9.203125 -2.703125 16.703125q-2.6875 7.5 -9.5 12.90625q-6.796875 5.390625 -18.90625 8.28125q-12.09375 2.90625 -30.890625 2.90625q-18.796875 0 -30.90625 -2.90625q-12.09375 -2.890625 -18.890625 -8.28125q-6.796875 -5.40625 -9.609375 -12.90625q-2.796875 -7.5 -2.796875 -16.703125l0 -68.203125q0 -9.203125 2.796875 -16.703125q2.8125 -7.5 9.609375 -12.890625q6.796875 -5.40625 18.890625 -8.40625q12.109375 -3.0 30.90625 -3.0q18.796875 0 30.890625 3.0q12.109375 3.0 18.90625 8.40625q6.8125 5.390625 9.5 12.890625q2.703125 7.5 2.703125 16.703125l0 68.203125zm-62.390625 22.390625q15.796875 0 24.59375 -3.390625q8.796875 -3.40625 12.390625 -9.5q3.609375 -6.109375 3.609375 -14.109375l0 -59.0q0 -8.1875 -3.609375 -14.1875q-3.59375 -6.0 -12.390625 -9.40625q-8.796875 -3.40625 -24.59375 -3.40625q-15.609375 0 -24.40625 3.40625q-8.796875 3.40625 -12.296875 9.40625q-3.5 6.0 -3.5 14.1875l0 59.0q0 8.0 3.5 14.109375q3.5 6.09375 12.296875 9.5q8.796875 3.390625 24.40625 3.390625zm0 -2.0q-14.8125 0 -23.21875 -3.09375q-8.390625 -3.09375 -11.6875 -8.796875q-3.296875 -5.703125 -3.296875 -13.109375l0 -59.0q0 -7.59375 3.296875 -13.1875q3.296875 -5.609375 11.6875 -8.703125q8.40625 -3.109375 23.21875 -3.109375q15.0 0 23.390625 3.109375q8.40625 3.09375 11.796875 8.703125q3.40625 5.59375 3.40625 13.1875l0 59.0q0 7.40625 -3.40625 13.109375q-3.390625 5.703125 -11.796875 8.796875q-8.390625 3.09375 -23.390625 3.09375zm-16.40625 -27.59375q0 4.0 3.0 6.703125q3.0 2.703125 13.796875 2.703125q11.0 0 13.890625 -2.703125q2.90625 -2.703125 2.90625 -6.703125l0 -53.796875q0 -4.0 -2.90625 -6.59375q-2.890625 -2.609375 -13.890625 -2.609375q-10.796875 0 -13.796875 2.609375q-3.0 2.59375 -3.0 6.59375l0 53.796875zm141.40002 45.0l-30.0 0q-7.203125 0 -7.203125 -7.203125l0 -129.59375q0 -7.203125 7.203125 -7.203125l20.796875 0q7.203125 0 11.796875 5.40625l38.8125 44.390625l0 -42.59375q0 -7.203125 7.1875 -7.203125l30.0 0q7.203125 0 7.203125 7.203125l0 129.59375q0 7.203125 -7.203125 7.203125l-30.0 0q-7.1875 0 -7.1875 -7.203125l0 -24.59375l-34.203125 -41.40625l0 66.0q0 7.203125 -7.203125 7.203125zm-10.796875 -124.40625q-1.796875 -1.796875 -3.0 -1.796875q-2.40625 0 -2.40625 2.40625l0 105.796875l2.0 0l0 -105.40625q0 -0.59375 0.40625 -0.59375q0.390625 0 1.0 0.59375l75.59375 84.8125l0 20.59375l2.0 0l0 -108.0l-2.0 0l0 84.40625l-73.59375 -82.8125z" fill-rule="nonzero"/></g></svg>